<svg width="33" height="33" viewBox="0 0 33 33" fill="none" xmlns="http://www.w3.org/2000/svg">
<path d="M33 30.3896L23.2576 20.6472C24.8748 18.4892 25.8452 15.8203 25.8452 12.9226C25.8452 5.79671 20.0485 0 12.9226 0C5.79671 0 0 5.79671 0 12.9226C0 20.0485 5.79671 25.8452 12.9226 25.8452C15.8203 25.8452 18.4892 24.8748 20.6472 23.2576L30.3896 33L33 30.3896ZM1.5 12.9226C1.5 6.47545 6.47545 1.5 12.9226 1.5C19.3697 1.5 24 6.47545 24 12.9226C24 19.3697 19.3697 24 12.9226 24C6.47545 24 1.5 19.3697 1.5 12.9226Z" fill="#EF5350"/>
</svg>
