<svg aria-hidden="true" style="position: absolute; width: 0; height: 0; overflow: hidden;" version="1.1" xmlns="http://www.w3.org/2000/svg" xmlns:xlink="http://www.w3.org/1999/xlink">
<defs>
<symbol id="icon-arrow-down-fill"  viewBox="0 0 37 37" xmlns="http://www.w3.org/2000/svg">
<path fill-rule="evenodd" clip-rule="evenodd" d="M-8.08661e-07 18.5C-1.25527e-06 28.7173 8.28273 37 18.5 37C28.7173 37 37 28.7173 37 18.5C37 8.28273 28.7173 -3.6205e-07 18.5 -8.08661e-07C8.28273 -1.25527e-06 -3.6205e-07 8.28273 -8.08661e-07 18.5ZM14.3716 16.6655C14.1869 16.4603 13.8708 16.4436 13.6655 16.6284C13.4603 16.8131 13.4436 17.1292 13.6284 17.3345L18.1284 22.3345L18.5 22.7474L18.8716 22.3345L23.3716 17.3345C23.5564 17.1292 23.5397 16.8131 23.3345 16.6284C23.1292 16.4436 22.8131 16.4603 22.6284 16.6655L18.5 21.2526L14.3716 16.6655Z"  />
</symbol>
<symbol id="icon-bank" viewBox="0 0 32 32">
<path d="M27.333 27.333h0.63c1.041 0 1.889 0.847 1.889 1.889v1.259c0 0.348-0.282 0.63-0.63 0.63h-27.704c-0.348 0-0.63-0.282-0.63-0.63v-1.259c0-1.041 0.847-1.889 1.889-1.889h0.63v-0.63c0-0.82 0.528-1.512 1.259-1.773v-9.047c-0.732-0.261-1.259-0.953-1.259-1.773v-0.63h-0.63c-0.348 0-0.63-0.282-0.63-0.63v-1.889h-0.63c-0.28 0-0.526-0.185-0.604-0.453s0.030-0.557 0.266-0.708l13.852-8.815c0.207-0.131 0.47-0.131 0.676 0l13.852 8.815c0.237 0.151 0.344 0.438 0.266 0.708s-0.324 0.453-0.603 0.453h-0.63v1.889c0 0.348-0.282 0.63-0.63 0.63h-0.63v0.63c0 0.82-0.528 1.512-1.259 1.773v9.047c0.732 0.261 1.259 0.953 1.259 1.773v0.63zM25.444 14.741c0.348 0 0.63-0.282 0.63-0.63v-0.63h-3.778v0.63c0 0.348 0.282 0.63 0.63 0.63h2.519zM17.259 15.884v9.047c0.732 0.261 1.259 0.953 1.259 1.773v0.63h2.518v-0.63c0-0.82 0.528-1.512 1.259-1.773v-9.047c-0.732-0.261-1.259-0.953-1.259-1.773v-0.63h-2.518v0.63c0 0.82-0.528 1.512-1.259 1.773zM8.444 15.884v9.047c0.732 0.261 1.259 0.953 1.259 1.773v0.63h2.519v-0.63c0-0.82 0.528-1.512 1.259-1.773v-9.047c-0.732-0.261-1.259-0.953-1.259-1.773v-0.63h-2.519v0.63c0 0.82-0.528 1.512-1.259 1.773zM4.667 14.111c0 0.348 0.282 0.63 0.63 0.63h2.519c0.348 0 0.63-0.282 0.63-0.63v-0.63h-3.778v0.63zM7.185 24.815v-8.815h-1.259v8.815h1.259zM14.111 26.074c-0.348 0-0.63 0.282-0.63 0.63h0v0.63h3.778v-0.63c0-0.348-0.282-0.63-0.63-0.63h-2.519zM14.741 16v8.815h1.259v-8.815h-1.259zM14.111 14.741h2.519c0.348 0 0.63-0.282 0.63-0.63v-0.63h-3.778v0.63c0 0.348 0.282 0.63 0.63 0.63zM22.926 26.074c-0.348 0-0.63 0.282-0.63 0.63h0v0.63h3.778v-0.63c0-0.348-0.282-0.63-0.63-0.63h-2.519zM23.556 16v8.815h1.259v-8.815h-1.259zM27.060 9.704l-11.69-7.438-11.69 7.438h23.379zM3.407 10.963v1.259h23.926v-1.259h-23.926zM5.296 26.074c-0.348 0-0.63 0.282-0.63 0.63v0.63h3.778v-0.63c0-0.348-0.282-0.63-0.63-0.63h-2.518zM2.148 29.222v0.63h26.444v-0.63c0-0.348-0.282-0.63-0.63-0.63h-25.185c-0.348 0-0.63 0.282-0.63 0.63zM15.719 4.772l3.778 2.519c0.23 0.154 0.334 0.441 0.253 0.706s-0.325 0.447-0.602 0.447h-7.556c-0.277 0-0.523-0.181-0.603-0.447s0.023-0.553 0.253-0.706l3.778-2.519c0.212-0.141 0.487-0.141 0.699 0zM15.369 6.053l-1.697 1.132h3.396l-1.699-1.132z"></path>
</symbol>
<symbol id="icon-copy" viewBox="0 0 32 32">
<path d="M7.619 5.333c0-2.525 2.047-4.571 4.571-4.571h14.561c2.525 0 4.571 2.047 4.571 4.571v14.561c0 2.525-2.047 4.571-4.571 4.571h-3.048v2.201c0 2.525-2.047 4.571-4.571 4.571h-14.561c-2.525 0-4.571-2.047-4.571-4.571v-14.561c0-2.525 2.047-4.571 4.571-4.571h3.048v-2.201zM22.18 12.106c0-1.683-1.365-3.048-3.048-3.048h-14.561c-1.683 0-3.048 1.364-3.048 3.048v14.561c0 1.683 1.364 3.048 3.048 3.048h14.561c1.683 0 3.048-1.364 3.048-3.048v-14.561zM12.19 2.286c-1.683 0-3.048 1.364-3.048 3.048v2.201h9.989c2.525 0 4.571 2.047 4.571 4.571v10.836h3.048c1.683 0 3.048-1.365 3.048-3.048v-14.561c0-1.683-1.365-3.048-3.048-3.048h-14.561z"></path>
</symbol>
<symbol id="icon-crutches" viewBox="0 0 32 32">
<path d="M7.216 2.161c-0.347 0-0.627 0.285-0.627 0.636v0.636c0 0.35 0.282 0.636 0.629 0.636h17.565c0.348 0 0.629-0.286 0.629-0.636v-0.636c0-0.351-0.281-0.636-0.627-0.636h-17.569zM5.333 2.798c0-1.054 0.843-1.909 1.882-1.909h17.569c1.039 0 1.882 0.855 1.882 1.909v0.636c0 1.055-0.846 1.909-1.884 1.909h-0.939v7.901c0 1.424-0.558 2.791-1.551 3.798-2.357 2.39-3.708 5.608-3.779 8.98h0.311c1.040 0 1.882 0.855 1.882 1.909v1.273c0 1.054-0.843 1.909-1.882 1.909h-5.961c-1.040 0-1.882-0.855-1.882-1.909v-1.273c0-1.054 0.843-1.909 1.882-1.909h0.625c-0.071-3.372-1.422-6.59-3.779-8.98-0.993-1.007-1.551-2.373-1.551-3.798v-7.901h-0.939c-1.038 0-1.884-0.853-1.884-1.909v-0.636zM22.568 5.343h-2.175v3.181h-8.784v-3.181h-2.196v7.901c0 1.087 0.426 2.129 1.184 2.898 2.592 2.628 4.076 6.17 4.147 9.88h2.515c0.071-3.709 1.555-7.251 4.147-9.88 0.758-0.769 1.184-1.811 1.184-2.898v-7.901h-0.021zM19.765 5.343h-7.529v2.545h7.529v-2.545zM18.196 27.294h-5.333c-0.347 0-0.627 0.285-0.627 0.636v1.273c0 0.351 0.281 0.636 0.627 0.636h5.961c0.347 0 0.627-0.285 0.627-0.636v-1.273c0-0.351-0.281-0.636-0.627-0.636h-0.627zM11.922 9.16h-0.314v2.304c0 1.865 0.768 3.644 2.12 4.909l2.273 2.127 2.273-2.127c1.351-1.265 2.12-3.044 2.12-4.909v-2.304h-8.471zM12.235 11.465v-1.668h7.529v1.668c0 1.687-0.695 3.297-1.918 4.441l-1.847 1.729-1.847-1.729c-1.222-1.144-1.918-2.755-1.918-4.441z"></path>
</symbol>
<symbol id="icon-document" viewBox="0 0 32 32">
<path  d="M28.539 6.935c-0.001-0.012-0.003-0.023-0.005-0.034-0.001-0.004-0.001-0.008-0.002-0.011-0.003-0.013-0.006-0.027-0.010-0.040-0-0.002-0.001-0.003-0.001-0.005-0.004-0.013-0.009-0.026-0.014-0.039-0.001-0.001-0.001-0.003-0.002-0.004-0.005-0.012-0.011-0.024-0.017-0.036-0.001-0.002-0.002-0.004-0.003-0.006-0.006-0.011-0.012-0.021-0.019-0.032-0.002-0.003-0.003-0.005-0.005-0.008-0.006-0.010-0.014-0.019-0.021-0.028-0.002-0.003-0.004-0.006-0.007-0.009-0.009-0.011-0.018-0.021-0.028-0.031-0.001-0.001-0.002-0.002-0.003-0.003l-6.513-6.513c-0.001-0.001-0.002-0.002-0.004-0.003-0.010-0.010-0.020-0.019-0.030-0.028-0.003-0.003-0.007-0.005-0.011-0.008-0.009-0.007-0.017-0.013-0.026-0.019-0.003-0.002-0.007-0.004-0.010-0.006-0.010-0.006-0.020-0.012-0.030-0.018-0.002-0.001-0.005-0.002-0.007-0.003-0.011-0.006-0.023-0.011-0.035-0.016-0.001-0.001-0.003-0.001-0.005-0.002-0.013-0.005-0.025-0.010-0.038-0.014-0.002-0.001-0.003-0.001-0.005-0.001-0.013-0.004-0.026-0.007-0.039-0.010-0.004-0.001-0.008-0.001-0.012-0.002-0.011-0.002-0.022-0.004-0.034-0.005-0.015-0.002-0.031-0.002-0.047-0.002h-15.53c-1.364 0-2.474 1.11-2.474 2.474v27.053c0 1.364 1.11 2.474 2.474 2.474h20.039c1.364 0 2.474-1.11 2.474-2.474v-22.544c0-0.016-0.001-0.031-0.002-0.047zM22.029 1.603l4.909 4.909h-3.375c-0.846 0-1.534-0.688-1.534-1.534v-3.375zM26.068 31.061h-20.039c-0.846 0-1.534-0.688-1.534-1.534v-27.053c0-0.846 0.688-1.534 1.534-1.534h15.061v4.039c0 1.364 1.11 2.474 2.474 2.474h4.039v22.074c0 0.846-0.688 1.534-1.534 1.534z"></path>
<path   d="M24.517 15.53h-3.006c-0.259 0-0.47 0.21-0.47 0.47s0.21 0.47 0.47 0.47h3.006c0.259 0 0.47-0.21 0.47-0.47s-0.21-0.47-0.47-0.47z"></path>
<path   d="M7.483 16.47h12.024c0.259 0 0.47-0.21 0.47-0.47s-0.21-0.47-0.47-0.47h-12.024c-0.259 0-0.47 0.21-0.47 0.47s0.21 0.47 0.47 0.47z"></path>
<path   d="M24.517 9.519h-12.524c-0.259 0-0.47 0.21-0.47 0.47s0.21 0.47 0.47 0.47h12.524c0.259 0 0.47-0.21 0.47-0.47s-0.21-0.47-0.47-0.47z"></path>
<path   d="M7.483 10.458h2.505c0.259 0 0.47-0.21 0.47-0.47s-0.21-0.47-0.47-0.47h-2.505c-0.259 0-0.47 0.21-0.47 0.47s0.21 0.47 0.47 0.47z"></path>
<path  d="M24.517 21.542h-9.519c-0.259 0-0.47 0.21-0.47 0.47s0.21 0.47 0.47 0.47h9.519c0.259 0 0.47-0.21 0.47-0.47s-0.21-0.47-0.47-0.47z"></path>
<path  d="M12.994 21.542h-5.511c-0.259 0-0.47 0.21-0.47 0.47s0.21 0.47 0.47 0.47h5.511c0.259 0 0.47-0.21 0.47-0.47s-0.21-0.47-0.47-0.47z"></path>
<path   d="M24.517 12.524h-17.033c-0.259 0-0.47 0.21-0.47 0.47s0.21 0.47 0.47 0.47h17.033c0.259 0 0.47-0.21 0.47-0.47s-0.21-0.47-0.47-0.47z"></path>
<path   d="M24.517 18.536h-17.033c-0.259 0-0.47 0.21-0.47 0.47s0.21 0.47 0.47 0.47h17.033c0.259 0 0.47-0.21 0.47-0.47s-0.21-0.47-0.47-0.47z"></path>
</symbol>
<symbol id="icon-dollar-coin" viewBox="0 0 32 32">
<path d="M16 0.8c4.062 0 7.878 1.578 10.75 4.45s4.45 6.688 4.45 10.75c0 4.062-1.578 7.878-4.45 10.75s-6.688 4.45-10.75 4.45c-4.062 0-7.878-1.578-10.75-4.45s-4.45-6.688-4.45-10.75c0-4.062 1.578-7.878 4.45-10.75s6.688-4.45 10.75-4.45zM2.352 16c0 7.522 6.125 13.648 13.648 13.648s13.648-6.125 13.648-13.648c0-7.522-6.125-13.648-13.648-13.648s-13.648 6.125-13.648 13.648zM14.875 15.224h2.257c1.792 0 3.247 1.455 3.247 3.253 0 1.779-1.436 3.228-3.208 3.253h-0.395v1.617c0 0.427-0.349 0.776-0.776 0.776s-0.776-0.349-0.776-0.776v-1.617h-2.147c-0.427 0-0.776-0.349-0.776-0.776s0.349-0.776 0.776-0.776h4.055c0.938 0 1.701-0.763 1.701-1.701s-0.763-1.701-1.701-1.701h-2.257c-1.792 0-3.253-1.462-3.253-3.253s1.462-3.253 3.253-3.253h0.356v-1.585c0-0.427 0.349-0.776 0.776-0.776s0.776 0.349 0.776 0.776v1.585h2.076c0.427 0 0.776 0.349 0.776 0.776s-0.349 0.776-0.776 0.776h-3.984c-0.938 0-1.701 0.763-1.701 1.701s0.763 1.701 1.701 1.701z"></path>
</symbol>
<symbol id="icon-money-stack" viewBox="0 0 32 32">
<path d="M30.222 7.111c0-0.194-0.094-0.572-0.683-1.113-0.59-0.543-1.543-1.114-2.87-1.63-2.643-1.028-6.414-1.702-10.669-1.702s-8.027 0.674-10.669 1.702c-1.327 0.516-2.28 1.087-2.87 1.63-0.589 0.542-0.683 0.92-0.683 1.113s0.094 0.572 0.683 1.113c0.59 0.543 1.543 1.114 2.87 1.63 2.643 1.028 6.414 1.702 10.669 1.702s8.027-0.674 10.669-1.702c1.327-0.516 2.28-1.087 2.87-1.63 0.589-0.542 0.683-0.92 0.683-1.113zM30.222 19.040c-2.66 2.001-8.030 3.369-14.222 3.369s-11.562-1.368-14.222-3.369v5.849c0 0.194 0.094 0.572 0.683 1.113 0.59 0.543 1.543 1.113 2.87 1.63 2.643 1.028 6.414 1.701 10.669 1.701s8.027-0.674 10.669-1.701c1.327-0.516 2.28-1.087 2.87-1.63 0.481-0.442 0.632-0.776 0.671-0.988l0.012 0v-5.974zM30.222 16.312v-6.347c-2.66 2.001-8.030 3.369-14.222 3.369s-11.562-1.368-14.222-3.369v6.222c0 0.194 0.094 0.572 0.683 1.113 0.59 0.543 1.543 1.114 2.87 1.63 2.643 1.028 6.414 1.701 10.669 1.701s8.027-0.674 10.669-1.701c1.327-0.516 2.28-1.087 2.87-1.63 0.481-0.442 0.632-0.776 0.671-0.988l0.012 0zM32 16.187v8.702c0 3.436-7.163 6.222-16 6.222s-16-2.786-16-6.222v0-17.778c0-3.436 7.163-6.222 16-6.222s16 2.786 16 6.222v9.076z"></path>
</symbol>
<symbol id="icon-partner" viewBox="0 0 32 32">
<path d="M13.172 13.615c0.837 0.559 1.822 0.858 2.828 0.858 1.35 0 2.645-0.536 3.6-1.491s1.491-2.25 1.491-3.6c0-1.007-0.299-1.991-0.858-2.828s-1.354-1.49-2.285-1.875-1.954-0.486-2.941-0.29c-0.988 0.196-1.895 0.681-2.607 1.393s-1.197 1.619-1.393 2.607c-0.196 0.988-0.096 2.011 0.29 2.941s1.038 1.725 1.875 2.285zM14.303 6.842c0.502-0.336 1.093-0.515 1.697-0.515 0.81 0 1.587 0.322 2.16 0.895s0.895 1.35 0.895 2.16c0 0.604-0.179 1.195-0.515 1.697s-0.813 0.894-1.371 1.125c-0.558 0.231-1.172 0.292-1.765 0.174s-1.137-0.409-1.564-0.836-0.718-0.971-0.836-1.564c-0.118-0.593-0.057-1.207 0.174-1.765s0.623-1.035 1.125-1.371zM6.836 27.709h18.327c0.27 0 0.529-0.107 0.72-0.298s0.298-0.45 0.298-0.72v-3.055c0-2.16-0.858-4.232-2.386-5.76s-3.599-2.386-5.76-2.386h-4.073c-2.16 0-4.232 0.858-5.76 2.386s-2.386 3.599-2.386 5.76v3.055c0 0.27 0.107 0.529 0.298 0.72s0.45 0.298 0.72 0.298zM24.145 25.673h-16.291v-2.036c0-1.62 0.644-3.174 1.789-4.32s2.7-1.789 4.32-1.789h4.073c1.62 0 3.174 0.644 4.32 1.789s1.789 2.7 1.789 4.32v2.036zM3.289 11.943c-0.325 0-0.643-0.096-0.913-0.277s-0.481-0.437-0.606-0.738c-0.124-0.3-0.157-0.631-0.094-0.95s0.22-0.612 0.45-0.842c0.23-0.23 0.523-0.387 0.842-0.45s0.65-0.031 0.95 0.094c0.3 0.124 0.557 0.335 0.738 0.606s0.277 0.588 0.277 0.914c0 0.436-0.173 0.854-0.482 1.163s-0.727 0.482-1.163 0.482zM3.289 9.312c-0.195 0-0.386 0.058-0.548 0.166s-0.289 0.262-0.363 0.443c-0.075 0.18-0.094 0.379-0.056 0.57s0.132 0.367 0.27 0.505c0.138 0.138 0.314 0.232 0.505 0.27s0.39 0.019 0.57-0.056c0.18-0.075 0.334-0.201 0.443-0.363s0.166-0.353 0.166-0.548c0-0.262-0.104-0.513-0.289-0.698s-0.436-0.289-0.698-0.289zM0.329 16.218h5.919c0.087 0 0.171-0.035 0.233-0.096s0.096-0.145 0.096-0.233v-0.987c0-0.698-0.277-1.367-0.771-1.86s-1.163-0.771-1.86-0.771h-1.315c-0.698 0-1.367 0.277-1.86 0.771s-0.771 1.163-0.771 1.86v0.987c0 0.087 0.035 0.171 0.096 0.233s0.145 0.096 0.233 0.096zM5.919 15.56h-5.262v-0.658c0-0.523 0.208-1.025 0.578-1.395s0.872-0.578 1.395-0.578h1.315c0.523 0 1.025 0.208 1.395 0.578s0.578 0.872 0.578 1.395v0.658zM28.016 11.943c-0.325 0-0.643-0.096-0.914-0.277s-0.481-0.437-0.606-0.738c-0.125-0.3-0.157-0.631-0.094-0.95s0.22-0.612 0.45-0.842 0.523-0.387 0.842-0.45c0.319-0.063 0.65-0.031 0.95 0.094s0.557 0.335 0.738 0.606 0.277 0.588 0.277 0.914c0 0.436-0.173 0.854-0.482 1.163s-0.727 0.482-1.163 0.482zM28.016 9.312c-0.195 0-0.386 0.058-0.548 0.166s-0.289 0.262-0.363 0.443c-0.075 0.18-0.094 0.379-0.056 0.57s0.132 0.367 0.27 0.505c0.138 0.138 0.314 0.232 0.505 0.27s0.39 0.019 0.57-0.056c0.18-0.075 0.334-0.201 0.443-0.363s0.166-0.353 0.166-0.548c0-0.262-0.104-0.513-0.289-0.698s-0.436-0.289-0.698-0.289zM24.824 16.122c0.062 0.062 0.145 0.096 0.233 0.096h5.919c0.087 0 0.171-0.035 0.232-0.096s0.096-0.145 0.096-0.233v-0.987c0-0.698-0.277-1.367-0.77-1.86s-1.163-0.771-1.86-0.771h-1.315c-0.698 0-1.367 0.277-1.86 0.771s-0.771 1.163-0.771 1.86v0.987c0 0.087 0.035 0.171 0.096 0.233zM30.647 15.56h-5.262v-0.658c0-0.523 0.208-1.025 0.578-1.395s0.872-0.578 1.395-0.578h1.315c0.523 0 1.025 0.208 1.395 0.578s0.578 0.872 0.578 1.395v0.658z"></path>
</symbol>
<symbol id="icon-search" viewBox="0 0 32 32">
<path fill="#ef5350" style="fill: var(--color1, #ef5350)" d="M32 29.469l-9.447-9.447c1.568-2.093 2.509-4.681 2.509-7.491 0-6.91-5.621-12.531-12.531-12.531s-12.531 5.621-12.531 12.531c0 6.91 5.621 12.531 12.531 12.531 2.81 0 5.398-0.941 7.491-2.509l9.447 9.447 2.531-2.531zM1.455 12.531c0-6.252 4.825-11.076 11.076-11.076s10.742 4.825 10.742 11.076c0 6.252-4.49 10.742-10.742 10.742s-11.076-4.49-11.076-10.742z"></path>
</symbol>
<symbol id="icon-user" viewBox="0 0 32 32">
<path d="M11.761 12.666c1.035 0.707 2.253 1.084 3.498 1.084 1.67 0 3.271-0.677 4.452-1.883s1.844-2.841 1.844-4.547c0-1.272-0.369-2.515-1.061-3.572s-1.675-1.882-2.826-2.368-2.416-0.614-3.638-0.366c-1.221 0.248-2.343 0.861-3.224 1.76s-1.48 2.045-1.723 3.292c-0.243 1.247-0.118 2.54 0.358 3.715s1.284 2.179 2.319 2.886zM13.16 4.111c0.621-0.424 1.352-0.65 2.099-0.65 1.002 0 1.963 0.406 2.671 1.13s1.106 1.705 1.106 2.728c0 0.763-0.222 1.509-0.637 2.143s-1.005 1.129-1.695 1.421c-0.69 0.292-1.45 0.368-2.183 0.22s-1.406-0.516-1.934-1.056c-0.528-0.54-0.888-1.227-1.034-1.975s-0.071-1.524 0.215-2.229c0.286-0.705 0.77-1.308 1.391-1.732zM3.926 31.111h22.667c0.334 0 0.654-0.135 0.89-0.377s0.369-0.568 0.369-0.909v-3.858c0-2.729-1.061-5.346-2.951-7.275s-4.452-3.013-7.123-3.013h-5.037c-2.672 0-5.234 1.084-7.123 3.013s-2.951 4.546-2.951 7.275v3.858c0 0.341 0.133 0.668 0.369 0.909s0.556 0.377 0.89 0.377zM25.333 28.539h-20.148v-2.572c0-2.047 0.796-4.009 2.213-5.456s3.339-2.26 5.343-2.26h5.037c2.004 0 3.926 0.813 5.343 2.26s2.213 3.41 2.213 5.456v2.572z"></path>
</symbol>
<symbol id="icon-verify" viewBox="0 0 32 32">
<path d="M12.644 30.226c0.689 0.59 1.574 0.886 2.46 0.886s1.771-0.295 2.46-0.9l2.221-1.912c0.225-0.183 0.787-0.394 1.082-0.394h2.39c2.081 0 3.767-1.687 3.767-3.767v-2.389c0-0.295 0.211-0.858 0.408-1.082l1.912-2.221c1.181-1.378 1.181-3.528 0-4.906l-1.912-2.221c-0.197-0.225-0.408-0.787-0.408-1.082v-2.39c0-2.080-1.687-3.767-3.767-3.767h-2.39c-0.295 0-0.857-0.197-1.082-0.394l-2.221-1.912c-1.378-1.181-3.528-1.181-4.906 0l-2.221 1.912c-0.225 0.183-0.787 0.394-1.082 0.394h-2.432c-2.080 0-3.767 1.687-3.767 3.767v2.418c0 0.295-0.197 0.843-0.394 1.068l-1.898 2.235c-1.153 1.364-1.153 3.514 0 4.878l1.898 2.235c0.197 0.225 0.394 0.773 0.394 1.068v2.404c0 2.081 1.687 3.767 3.767 3.767h2.418c0.295 0 0.857 0.197 1.082 0.394l2.221 1.912zM5.264 7.847c0-0.914 0.745-1.659 1.659-1.659h2.432c0.801 0 1.841-0.38 2.46-0.9l2.221-1.926c0.576-0.492 1.588-0.492 2.165 0l2.221 1.912c0.619 0.534 1.645 0.914 2.46 0.914h2.39c0.914 0 1.659 0.745 1.659 1.659v2.376c0 0.815 0.379 1.841 0.914 2.46l1.912 2.221c0.492 0.576 0.492 1.588 0 2.165l-1.912 2.221c-0.534 0.619-0.914 1.645-0.914 2.46v2.389c0 0.914-0.745 1.659-1.659 1.659h-2.39c-0.815 0-1.841 0.394-2.46 0.914l-2.221 1.912c-0.576 0.492-1.588 0.492-2.165 0l-2.221-1.912c-0.619-0.534-1.645-0.914-2.46-0.914h-2.432c-0.914 0-1.659-0.745-1.659-1.659v-2.404c0-0.801-0.38-1.813-0.9-2.432l-1.898-2.235c-0.492-0.576-0.492-1.574 0-2.151l1.898-2.235c0.52-0.604 0.9-1.631 0.9-2.432v-2.404zM12.658 20.147c0.197 0.197 0.464 0.309 0.745 0.309s0.548-0.112 0.745-0.309l6.79-6.79c0.408-0.408 0.408-1.082 0-1.49s-1.082-0.408-1.49 0l-6.044 6.044-2.657-2.657c-0.408-0.408-1.082-0.408-1.49 0s-0.408 1.082 0 1.49l3.402 3.402z"></path>
</symbol>
<symbol id="icon-community"   viewBox="0 0 18 18"   xmlns="http://www.w3.org/2000/svg">
<path fill-rule="evenodd" clip-rule="evenodd" d="M18 0.396484H0V14.3965H5.79291L9 17.6036L12.2071 14.3965H18V0.396484ZM1 13.3965V1.39648H17V13.3965H11.7929L9 16.1893L6.20709 13.3965H1ZM6.5 7.89648H5.5V8.89648H6.5V7.89648ZM9.5 7.89648H8.5V8.89648H9.5V7.89648ZM11.5 7.89648H12.5V8.89648H11.5V7.89648Z"/>
</symbol>

<symbol  viewBox="0 0 30 17" xmlns="http://www.w3.org/2000/svg">
<path  d="M13.1157 6.62452C13.6981 7.02198 14.3829 7.23402 15.0833 7.23402C16.0226 7.23402 16.9235 6.85304 17.5877 6.17469C18.2519 5.49635 18.625 4.5763 18.625 3.61707C18.625 2.90162 18.4173 2.2024 18.0281 1.60755C17.6389 1.0127 17.0858 0.549082 16.4387 0.2754C15.7915 0.0015962 15.0794 -0.0700591 14.3924 0.0694673C13.7054 0.209116 13.0743 0.553598 12.579 1.05946C12.0837 1.56532 11.7464 2.20973 11.6097 2.91139C11.4731 3.61305 11.5432 4.34034 11.8112 5.00123C12.0793 5.66212 12.5333 6.22706 13.1157 6.62452ZM13.9027 1.81251C14.2522 1.57411 14.6631 1.44679 15.0833 1.44679C15.6469 1.44679 16.1874 1.67542 16.5859 2.08241C16.9845 2.48951 17.2083 3.04151 17.2083 3.61707C17.2083 4.04627 17.0837 4.46583 16.8502 4.82276C16.6167 5.17957 16.2848 5.45777 15.8965 5.62208C15.5082 5.78626 15.081 5.82923 14.6688 5.74549C14.2566 5.66175 13.8779 5.45509 13.5807 5.15162C13.2835 4.84815 13.0811 4.46144 12.9992 4.04041C12.9172 3.61939 12.9593 3.18311 13.1201 2.78651C13.2809 2.39002 13.5533 2.05103 13.9027 1.81251ZM21.4583 17C21.6462 17 21.8264 16.9238 21.9592 16.7881C22.092 16.6525 22.1667 16.4685 22.1667 16.2766V14.1063C22.1667 12.5715 21.5696 11.0995 20.5069 10.0142C19.4442 8.92884 18.0029 8.3191 16.5 8.3191H13.6667C12.1638 8.3191 10.7224 8.92884 9.65973 10.0142C8.59702 11.0995 8 12.5715 8 14.1063V16.2766C8 16.4685 8.07463 16.6525 8.20746 16.7881C8.3403 16.9238 8.52048 17 8.70833 17H21.4583ZM9.41667 15.5532V14.1063C9.41667 12.9552 9.86444 11.8512 10.6615 11.0372C11.4585 10.2233 12.5395 9.766 13.6667 9.766H16.5C17.6272 9.766 18.7082 10.2233 19.5052 11.0372C20.3022 11.8512 20.75 12.9552 20.75 14.1063V15.5532H9.41667ZM2.16664 4.72779C2.41331 4.89137 2.70332 4.97877 3 4.97877C3.39783 4.97877 3.77936 4.82179 4.06065 4.54249C4.34196 4.26319 4.5 3.88441 4.5 3.48939C4.5 3.19483 4.41203 2.90687 4.24721 2.66187C4.08238 2.417 3.84811 2.22608 3.57402 2.11341C3.29994 2.00062 2.99834 1.9712 2.70737 2.02857C2.4164 2.08607 2.14912 2.22791 1.93935 2.43629C1.72957 2.64454 1.5867 2.90992 1.52882 3.19886C1.47095 3.48768 1.50066 3.78724 1.61418 4.05934C1.72771 4.33143 1.91997 4.5641 2.16664 4.72779ZM2.49998 2.74635C2.64799 2.6482 2.82199 2.59571 3 2.59571C3.23869 2.59571 3.46762 2.68995 3.6364 2.85743C3.80518 3.02503 3.89999 3.25233 3.89999 3.48939C3.89999 3.66615 3.84721 3.83888 3.74832 3.98585C3.64943 4.13282 3.50887 4.24732 3.34442 4.31495C3.17996 4.38258 2.99901 4.40028 2.82442 4.36585C2.64984 4.33131 2.48947 4.24623 2.3636 4.12123C2.23773 3.99623 2.15202 3.83705 2.11729 3.66371C2.08257 3.49037 2.10039 3.31068 2.1685 3.14735C2.23663 2.98414 2.35199 2.84449 2.49998 2.74635ZM5.7 9.00001C5.77957 9.00001 5.85587 8.96864 5.91214 8.91273C5.93837 8.88673 5.95923 8.85645 5.97403 8.82337C5.991 8.78553 6 8.74427 6 8.70216V7.80848C6 7.17652 5.74715 6.57044 5.29706 6.12354C4.84697 5.67665 4.23653 5.42555 3.60001 5.42555H2.39999C1.76347 5.42555 1.15303 5.67665 0.702942 6.12354C0.252853 6.57044 0 7.17652 0 7.80848V8.70216C0 8.73243 0.00465393 8.76222 0.0135651 8.79066C0.0278778 8.83631 0.0531921 8.87831 0.0878754 8.91273C0.108612 8.93336 0.132065 8.95069 0.157394 8.96424C0.200806 8.98756 0.249756 9.00001 0.300003 9.00001H5.7ZM0.600006 8.40431V7.80848C0.600006 7.33448 0.789642 6.87989 1.12721 6.54481C1.46477 6.2096 1.92261 6.02125 2.39999 6.02125H3.60001C4.07739 6.02125 4.53523 6.2096 4.87279 6.54481C5.21036 6.87989 5.39999 7.33448 5.39999 7.80848V8.40431H0.600006ZM27 4.97877C26.7033 4.97877 26.4133 4.89137 26.1667 4.72779C25.92 4.5641 25.7277 4.33143 25.6142 4.05934C25.5006 3.78724 25.4709 3.48768 25.5288 3.19886C25.5867 2.90992 25.7296 2.64454 25.9393 2.43629C26.1491 2.22791 26.4164 2.08607 26.7074 2.02857C26.9983 1.9712 27.2999 2.00062 27.574 2.11341C27.8481 2.22608 28.0824 2.417 28.2472 2.66187C28.412 2.90687 28.5 3.19483 28.5 3.48939C28.5 3.88441 28.342 4.26319 28.0607 4.54249C27.7794 4.82179 27.3978 4.97877 27 4.97877ZM27 2.59571C26.822 2.59571 26.648 2.6482 26.5 2.74635C26.352 2.84449 26.2366 2.98414 26.1685 3.14735C26.1004 3.31068 26.0826 3.49037 26.1173 3.66371C26.152 3.83705 26.2377 3.99623 26.3636 4.12123C26.4895 4.24623 26.6498 4.33131 26.8244 4.36585C26.999 4.40028 27.18 4.38258 27.3444 4.31495C27.5089 4.24732 27.6494 4.13282 27.7483 3.98585C27.8472 3.83888 27.9 3.66615 27.9 3.48939C27.9 3.25233 27.8052 3.02503 27.6364 2.85743C27.4676 2.68995 27.2387 2.59571 27 2.59571ZM29.9121 8.91273C29.8559 8.96864 29.7796 9.00001 29.7 9.00001H24.3C24.2204 9.00001 24.1441 8.96864 24.0879 8.91273C24.0316 8.85694 24 8.78114 24 8.70216V7.80848C24 7.17652 24.2529 6.57044 24.7029 6.12354C25.153 5.67665 25.7635 5.42555 26.4 5.42555H27.6C28.2365 5.42555 28.847 5.67665 29.2971 6.12354C29.7471 6.57044 30 7.17652 30 7.80848V8.70216C30 8.78114 29.9684 8.85694 29.9121 8.91273ZM24.6 7.80848V8.40431H29.4V7.80848C29.4 7.33448 29.2104 6.87989 28.8728 6.54481C28.5352 6.2096 28.0774 6.02125 27.6 6.02125H26.4C25.9226 6.02125 25.4648 6.2096 25.1272 6.54481C24.7896 6.87989 24.6 7.33448 24.6 7.80848Z"/>
</symbol>
 
<symbol  id="icon-wallet" xmlns="http://www.w3.org/2000/svg"  
	 viewBox="0 0 297 297"  >
<path d="M286.932,103.824h-7.236V53.328c0-5.56-4.508-10.068-10.068-10.068H10.068C4.508,43.26,0,47.768,0,53.328v190.344
	c0,5.56,4.508,10.068,10.068,10.068h259.56c5.56,0,10.068-4.508,10.068-10.068v-50.496h7.236c5.56,0,10.068-4.508,10.068-10.068
	v-69.216C297,108.332,292.492,103.824,286.932,103.824z M276.864,173.04h-49.081V123.96h49.081V173.04z M183.108,173.04
	c-13.532,0-24.54-11.009-24.54-24.54s11.009-24.54,24.54-24.54h24.54v49.081H183.108z M259.56,233.604H20.136V63.396H259.56v40.428
	h-76.452c-24.635,0-44.676,20.041-44.676,44.676s20.041,44.676,44.676,44.676h76.452V233.604z"/>
</symbol>

 <symbol id="icon-visa-card" xmlns="http://www.w3.org/2000/svg" viewBox="0 0 512 512" >
    <path d="M499.8,108c0-16.7-13.5-30.2-30.2-30.2H41.3c-16.7,0-30.2,13.5-30.2,30.2V404c0,16.7,13.5,30.2,30.2,30.2h429.3   c16.7,0,30.2-13.5,29.2-31.3V108z M480,210.2H32v-30.2H480V210.2z M30.9,109.1c0-6.3,5.2-10.4,10.4-10.4v-1h428.3   c6.3,0,10.4,5.2,10.4,10.4v52.1H30.9V109.1z M480,404c0,6.3-5.2,10.4-10.4,10.4H41.3c-6.3,0-10.4-5.2-10.4-10.4V231H480V404z"/>
</symbol>



</defs>
</svg>
