<svg width="800" height="266" viewBox="0 0 800 266" fill="none" xmlns="http://www.w3.org/2000/svg">
<mask id="path-1-outside-1_38_9" maskUnits="userSpaceOnUse" x="0.0429688" y="0" width="800" height="266" fill="black">
<rect fill="white" x="0.0429688" width="800" height="266"/>
<path d="M44.9883 12.7188V226H1.04297V12.7188H44.9883ZM129.949 103.832V138.109H32.9766V103.832H129.949ZM140.203 12.7188V47.1426H32.9766V12.7188H140.203ZM225.457 49.1934L167.449 226H120.721L199.969 12.7188H229.705L225.457 49.1934ZM273.65 226L215.496 49.1934L210.809 12.7188H240.838L320.525 226H273.65ZM271.014 146.605V181.029H158.367V146.605H271.014ZM453.533 194.359L511.248 240.062L483.562 264.086L426.727 218.383L453.533 194.359ZM512.713 114.379V124.486C512.713 140.697 510.516 155.248 506.121 168.139C501.824 181.029 495.623 192.016 487.518 201.098C479.412 210.082 469.842 216.967 458.807 221.752C447.771 226.537 435.516 228.93 422.039 228.93C408.66 228.93 396.404 226.537 385.271 221.752C374.139 216.967 364.52 210.082 356.414 201.098C348.309 192.016 342.01 181.029 337.518 168.139C333.123 155.248 330.926 140.697 330.926 124.486V114.379C330.926 98.0703 333.123 83.5195 337.518 70.7266C342.01 57.8359 348.26 46.8496 356.268 37.7676C364.275 28.6855 373.846 21.752 384.979 16.9668C396.111 12.1816 408.367 9.78906 421.746 9.78906C435.223 9.78906 447.479 12.1816 458.514 16.9668C469.646 21.752 479.266 28.6855 487.371 37.7676C495.477 46.8496 501.727 57.8359 506.121 70.7266C510.516 83.5195 512.713 98.0703 512.713 114.379ZM468.328 124.486V114.086C468.328 102.758 467.254 92.7969 465.105 84.2031C463.055 75.6094 460.027 68.3828 456.023 62.5234C452.117 56.6641 447.283 52.2695 441.521 49.3398C435.76 46.3125 429.168 44.7988 421.746 44.7988C414.324 44.7988 407.732 46.3125 401.971 49.3398C396.209 52.2695 391.375 56.6641 387.469 62.5234C383.562 68.3828 380.584 75.6094 378.533 84.2031C376.482 92.7969 375.457 102.758 375.457 114.086V124.486C375.457 135.717 376.482 145.678 378.533 154.369C380.584 162.963 383.562 170.238 387.469 176.195C391.473 182.055 396.355 186.498 402.117 189.525C407.977 192.553 414.617 194.066 422.039 194.066C429.461 194.066 436.004 192.553 441.668 189.525C447.43 186.498 452.264 182.055 456.17 176.195C460.174 170.238 463.201 162.963 465.252 154.369C467.303 145.678 468.328 135.717 468.328 124.486ZM579.51 1L608.367 46.1172H573.797L533.66 1H579.51ZM754.559 170.189C754.559 166.381 753.973 162.963 752.801 159.936C751.727 156.811 749.676 153.979 746.648 151.439C743.621 148.803 739.373 146.215 733.904 143.676C728.436 141.137 721.355 138.5 712.664 135.766C702.996 132.641 693.816 129.125 685.125 125.219C676.531 121.312 668.914 116.771 662.273 111.596C655.73 106.322 650.555 100.219 646.746 93.2852C643.035 86.3516 641.18 78.2949 641.18 69.1152C641.18 60.2285 643.133 52.1719 647.039 44.9453C650.945 37.6211 656.414 31.3711 663.445 26.1953C670.477 20.9219 678.777 16.8691 688.348 14.0371C698.016 11.2051 708.611 9.78906 720.135 9.78906C735.857 9.78906 749.578 12.6211 761.297 18.2852C773.016 23.9492 782.098 31.7129 788.543 41.5762C795.086 51.4395 798.357 62.7188 798.357 75.4141H754.705C754.705 69.1641 753.387 63.6953 750.75 59.0078C748.211 54.2227 744.305 50.4629 739.031 47.7285C733.855 44.9941 727.312 43.627 719.402 43.627C711.785 43.627 705.438 44.7988 700.359 47.1426C695.281 49.3887 691.473 52.4648 688.934 56.3711C686.395 60.1797 685.125 64.4766 685.125 69.2617C685.125 72.875 686.004 76.1465 687.762 79.0762C689.617 82.0059 692.352 84.7402 695.965 87.2793C699.578 89.8184 704.021 92.2109 709.295 94.457C714.568 96.7031 720.672 98.9004 727.605 101.049C739.227 104.564 749.432 108.52 758.221 112.914C767.107 117.309 774.529 122.24 780.486 127.709C786.443 133.178 790.936 139.379 793.963 146.312C796.99 153.246 798.504 161.107 798.504 169.896C798.504 179.174 796.697 187.475 793.084 194.799C789.471 202.123 784.246 208.324 777.41 213.402C770.574 218.48 762.42 222.338 752.947 224.975C743.475 227.611 732.879 228.93 721.16 228.93C710.613 228.93 700.213 227.562 689.959 224.828C679.705 221.996 670.379 217.748 661.98 212.084C653.68 206.42 647.039 199.193 642.059 190.404C637.078 181.615 634.588 171.215 634.588 159.203H678.68C678.68 165.844 679.705 171.459 681.756 176.049C683.807 180.639 686.688 184.35 690.398 187.182C694.207 190.014 698.699 192.064 703.875 193.334C709.148 194.604 714.91 195.238 721.16 195.238C728.777 195.238 735.027 194.164 739.91 192.016C744.891 189.867 748.553 186.889 750.896 183.08C753.338 179.271 754.559 174.975 754.559 170.189Z"/>
</mask>
<path d="M44.9883 12.7188V226H1.04297V12.7188H44.9883ZM129.949 103.832V138.109H32.9766V103.832H129.949ZM140.203 12.7188V47.1426H32.9766V12.7188H140.203ZM225.457 49.1934L167.449 226H120.721L199.969 12.7188H229.705L225.457 49.1934ZM273.65 226L215.496 49.1934L210.809 12.7188H240.838L320.525 226H273.65ZM271.014 146.605V181.029H158.367V146.605H271.014ZM453.533 194.359L511.248 240.062L483.562 264.086L426.727 218.383L453.533 194.359ZM512.713 114.379V124.486C512.713 140.697 510.516 155.248 506.121 168.139C501.824 181.029 495.623 192.016 487.518 201.098C479.412 210.082 469.842 216.967 458.807 221.752C447.771 226.537 435.516 228.93 422.039 228.93C408.66 228.93 396.404 226.537 385.271 221.752C374.139 216.967 364.52 210.082 356.414 201.098C348.309 192.016 342.01 181.029 337.518 168.139C333.123 155.248 330.926 140.697 330.926 124.486V114.379C330.926 98.0703 333.123 83.5195 337.518 70.7266C342.01 57.8359 348.26 46.8496 356.268 37.7676C364.275 28.6855 373.846 21.752 384.979 16.9668C396.111 12.1816 408.367 9.78906 421.746 9.78906C435.223 9.78906 447.479 12.1816 458.514 16.9668C469.646 21.752 479.266 28.6855 487.371 37.7676C495.477 46.8496 501.727 57.8359 506.121 70.7266C510.516 83.5195 512.713 98.0703 512.713 114.379ZM468.328 124.486V114.086C468.328 102.758 467.254 92.7969 465.105 84.2031C463.055 75.6094 460.027 68.3828 456.023 62.5234C452.117 56.6641 447.283 52.2695 441.521 49.3398C435.76 46.3125 429.168 44.7988 421.746 44.7988C414.324 44.7988 407.732 46.3125 401.971 49.3398C396.209 52.2695 391.375 56.6641 387.469 62.5234C383.562 68.3828 380.584 75.6094 378.533 84.2031C376.482 92.7969 375.457 102.758 375.457 114.086V124.486C375.457 135.717 376.482 145.678 378.533 154.369C380.584 162.963 383.562 170.238 387.469 176.195C391.473 182.055 396.355 186.498 402.117 189.525C407.977 192.553 414.617 194.066 422.039 194.066C429.461 194.066 436.004 192.553 441.668 189.525C447.43 186.498 452.264 182.055 456.17 176.195C460.174 170.238 463.201 162.963 465.252 154.369C467.303 145.678 468.328 135.717 468.328 124.486ZM579.51 1L608.367 46.1172H573.797L533.66 1H579.51ZM754.559 170.189C754.559 166.381 753.973 162.963 752.801 159.936C751.727 156.811 749.676 153.979 746.648 151.439C743.621 148.803 739.373 146.215 733.904 143.676C728.436 141.137 721.355 138.5 712.664 135.766C702.996 132.641 693.816 129.125 685.125 125.219C676.531 121.312 668.914 116.771 662.273 111.596C655.73 106.322 650.555 100.219 646.746 93.2852C643.035 86.3516 641.18 78.2949 641.18 69.1152C641.18 60.2285 643.133 52.1719 647.039 44.9453C650.945 37.6211 656.414 31.3711 663.445 26.1953C670.477 20.9219 678.777 16.8691 688.348 14.0371C698.016 11.2051 708.611 9.78906 720.135 9.78906C735.857 9.78906 749.578 12.6211 761.297 18.2852C773.016 23.9492 782.098 31.7129 788.543 41.5762C795.086 51.4395 798.357 62.7188 798.357 75.4141H754.705C754.705 69.1641 753.387 63.6953 750.75 59.0078C748.211 54.2227 744.305 50.4629 739.031 47.7285C733.855 44.9941 727.312 43.627 719.402 43.627C711.785 43.627 705.438 44.7988 700.359 47.1426C695.281 49.3887 691.473 52.4648 688.934 56.3711C686.395 60.1797 685.125 64.4766 685.125 69.2617C685.125 72.875 686.004 76.1465 687.762 79.0762C689.617 82.0059 692.352 84.7402 695.965 87.2793C699.578 89.8184 704.021 92.2109 709.295 94.457C714.568 96.7031 720.672 98.9004 727.605 101.049C739.227 104.564 749.432 108.52 758.221 112.914C767.107 117.309 774.529 122.24 780.486 127.709C786.443 133.178 790.936 139.379 793.963 146.312C796.99 153.246 798.504 161.107 798.504 169.896C798.504 179.174 796.697 187.475 793.084 194.799C789.471 202.123 784.246 208.324 777.41 213.402C770.574 218.48 762.42 222.338 752.947 224.975C743.475 227.611 732.879 228.93 721.16 228.93C710.613 228.93 700.213 227.562 689.959 224.828C679.705 221.996 670.379 217.748 661.98 212.084C653.68 206.42 647.039 199.193 642.059 190.404C637.078 181.615 634.588 171.215 634.588 159.203H678.68C678.68 165.844 679.705 171.459 681.756 176.049C683.807 180.639 686.688 184.35 690.398 187.182C694.207 190.014 698.699 192.064 703.875 193.334C709.148 194.604 714.91 195.238 721.16 195.238C728.777 195.238 735.027 194.164 739.91 192.016C744.891 189.867 748.553 186.889 750.896 183.08C753.338 179.271 754.559 174.975 754.559 170.189Z" stroke="white" stroke-width="2" mask="url(#path-1-outside-1_38_9)"/>
</svg>
